<svg xmlns="http://www.w3.org/2000/svg" width="24" height="24" viewBox="0 0 24 24" fill="none">
    <path d="M12 22C17.5228 22 22 17.5228 22 12C22 6.47715 17.5228 2 12 2C6.47715 2 2 6.47715 2 12C2 17.5228 6.47715 22 12 22Z" fill="#F0ABFC"/>
    <path fill-rule="evenodd" clip-rule="evenodd" d="M16.7024 9.21967C16.9953 9.51256 16.9953 9.98744 16.7024 10.2803L11.7544 15.2284C11.4615 15.5213 10.9866 15.5213 10.6937 15.2284L8.21967 12.7544C7.92678 12.4615 7.92678 11.9866 8.21967 11.6937C8.51256 11.4008 8.98744 11.4008 9.28033 11.6937L11.224 13.6374L15.6418 9.21967C15.9347 8.92678 16.4096 8.92678 16.7024 9.21967Z" fill="#0C0D0E"/>
</svg>